<svg xmlns="http://www.w3.org/2000/svg" version="1.1" xmlns:xlink="http://www.w3.org/1999/xlink" xmlns:svgjs="http://svgjs.dev/svgjs" width="1000" height="1000" viewBox="0 0 1000 1000"><rect width="1000" height="1000" fill="#000000"></rect><g transform="matrix(0.7,0,0,0.7,149.57575757575756,282.1265587044535)"><svg viewBox="0 0 396 247" data-background-color="#ffffff" preserveAspectRatio="xMidYMid meet" height="623" width="1000" xmlns="http://www.w3.org/2000/svg" xmlns:xlink="http://www.w3.org/1999/xlink"><g id="tight-bounds" transform="matrix(1,0,0,1,0.2400000000000091,-0.09999999999999432)"><svg viewBox="0 0 395.52 247.2" height="247.2" width="395.52"><g><svg></svg></g><g><svg viewBox="0 0 395.52 247.2" height="247.2" width="395.52"><g><path xmlns="http://www.w3.org/2000/svg" d="M55.039 247.2l26.403-45.732h7.584l-22.403 38.804h262.274l-22.403-38.804 7.584 0 26.403 45.732zM197.76 0l26.403 45.732-7.583 0-18.82-32.596-18.82 32.596-7.583 0z" fill="#ffffff" fill-rule="nonzero" stroke="none" stroke-width="1" stroke-linecap="butt" stroke-linejoin="miter" stroke-miterlimit="10" stroke-dasharray="" stroke-dashoffset="0" font-family="none" font-weight="none" font-size="none" text-anchor="none" style="mix-blend-mode: normal" data-fill-palette-color="tertiary"></path></g><g transform="matrix(1,0,0,1,43.406272189349096,67.97999999999999)"><svg viewBox="0 0 308.7074556213018 111.24" height="111.24" width="308.7074556213018"><g><svg viewBox="0 0 308.7074556213018 111.24" height="111.24" width="308.7074556213018"><g><svg viewBox="0 0 308.7074556213018 111.24" height="111.24" width="308.7074556213018"><g><svg viewBox="0 0 308.7074556213018 111.24" height="111.24" width="308.7074556213018"><g id="textblocktransform"><svg viewBox="0 0 308.7074556213018 111.24" height="111.24" width="308.7074556213018" id="textblock"><g><svg viewBox="0 0 308.7074556213018 111.24" height="111.24" width="308.7074556213018"><g transform="matrix(1,0,0,1,0,0)"><svg width="308.7074556213018" viewBox="1.9500000476837158 -32.52000045776367 91.60000610351562 33.01000213623047" height="111.24" data-palette-color="#000000"><path d="M7.96-32.03L7.96-32.03Q10.16-32.03 15.58-32.23 21-32.42 23.73-32.42L23.73-32.42Q23.93-31.01 24.49-28.69 25.05-26.37 25.15-25.78L25.15-25.78Q24.9-25.54 24.27-25.54 23.63-25.54 23.58-25.88L23.58-25.88Q22.85-28.56 21.53-29.32 20.21-30.08 17.92-30.08L17.92-30.08 14.65-30.08Q10.45-30.08 10.35-29.44L10.35-29.44Q10.11-28.27 10.11-25.34L10.11-25.34 10.11-17.38Q10.11-17.09 12.16-17.09L12.16-17.09 14.75-17.09Q18.02-17.09 18.75-17.55 19.48-18.02 20.02-20.21L20.02-20.21Q20.07-20.51 20.12-20.65L20.12-20.65Q20.17-21 20.85-21L20.85-21Q21.44-21 21.68-20.75L21.68-20.75 21.68-11.28Q21.48-11.08 20.9-11.08L20.9-11.08Q20.26-11.08 20.12-11.47L20.12-11.47Q19.78-12.79 19.53-13.45 19.29-14.11 19.17-14.23 19.04-14.36 18.75-14.55L18.75-14.55Q18.12-14.94 13.57-14.94L13.57-14.94Q10.11-14.94 10.11-14.5L10.11-14.5 10.11-6.79Q10.11-3.96 10.55-2.25L10.55-2.25Q10.64-1.9 11.91-1.59 13.18-1.27 13.67-1.27L13.67-1.27Q13.87-1.27 13.87-0.54L13.87-0.54Q13.87-0.15 13.77 0.15L13.77 0.15Q8.89-0.1 8.11-0.1L8.11-0.1Q7.86-0.1 2.25 0.15L2.25 0.15Q2.05-0.05 2.05-0.59L2.05-0.59Q2.05-1.27 2.25-1.27L2.25-1.27Q2.88-1.27 4.13-1.56 5.37-1.86 5.52-2.25L5.52-2.25Q5.86-3.56 5.86-6.64L5.86-6.64 5.86-25.44Q5.86-28.32 5.52-29.64L5.52-29.64Q5.37-30.03 4.08-30.37 2.78-30.71 2.15-30.71L2.15-30.71Q1.95-30.71 1.95-31.3L1.95-31.3Q1.95-31.93 2.15-32.13L2.15-32.13Q4.69-32.03 7.96-32.03ZM35.06-32.08L35.06-32.08Q36.86-32.08 39.55-32.32L39.55-32.32Q39.89-31.2 49.22-7.86L49.22-7.86Q49.27-7.76 49.41-7.76L49.41-7.76Q49.61-7.76 49.66-7.96L49.66-7.96Q54.44-19.19 57.27-26.46L57.27-26.46Q57.27-26.46 59.23-32.32L59.23-32.32Q62.35-32.13 63.28-32.13L63.28-32.13Q66.31-32.13 68.75-32.32L68.75-32.32Q68.89-31.88 68.89-31.59L68.89-31.59Q68.89-30.91 68.65-30.91L68.65-30.91 68.55-30.91Q68.02-30.91 67.14-30.59 66.26-30.27 65.82-29.93L65.82-29.93Q65.23-29.49 65.23-26.66L65.23-26.66Q65.23-25.88 65.67-6.84L65.67-6.84Q65.72-4.05 66.4-2.34L66.4-2.34Q66.6-1.9 67.87-1.59 69.14-1.27 69.68-1.27L69.68-1.27Q69.87-1.27 69.87-0.59L69.87-0.59Q69.87-0.15 69.77 0.15L69.77 0.15Q64.89-0.1 63.96-0.1L63.96-0.1Q63.72-0.1 58.1 0.15L58.1 0.15Q57.91-0.05 57.91-0.63L57.91-0.63Q57.91-1.27 58.1-1.27L58.1-1.27Q58.59-1.27 59.59-1.51 60.59-1.76 61.03-2L61.03-2Q61.62-2.34 61.62-4.1L61.62-4.1 61.62-6.69 61.03-23.88Q60.98-24.66 60.76-25.71 60.54-26.76 60.3-26.76L60.3-26.76Q60.2-26.76 60.06-26.42L60.06-26.42 49.85-2Q48.92 0.1 48.04 0.1L48.04 0.1Q47.9 0.1 47.6 0L47.6 0 36.42-28.42Q36.33-23.73 36.13-17.68 35.94-11.62 35.79-7.69 35.64-3.76 35.64-3.66L35.64-3.66Q35.64-2.78 35.94-2.39 36.23-2 37.72-1.64 39.21-1.27 39.69-1.27L39.69-1.27Q39.89-1.27 39.89-0.54L39.89-0.54Q39.89-0.15 39.79 0.15L39.79 0.15Q34.91-0.1 34.13-0.1L34.13-0.1Q34.03-0.1 28.42 0.15L28.42 0.15Q28.17-0.1 28.17-0.59L28.17-0.59Q28.17-1.27 28.42-1.27L28.42-1.27Q29.1-1.27 30.44-1.59 31.78-1.9 32.22-2.34L32.22-2.34Q33.01-3.22 33.1-6.59L33.1-6.59Q33.2-11.67 33.32-16.6 33.44-21.53 33.54-24.34 33.64-27.15 33.64-27.93L33.64-27.93Q33.64-29.15 33.44-29.88L33.44-29.88Q33.3-30.27 31.78-30.59 30.27-30.91 29.59-30.91L29.59-30.91Q29.39-30.91 29.39-31.59L29.39-31.59Q29.39-32.13 29.59-32.32L29.59-32.32Q30.42-32.28 31.42-32.23 32.42-32.18 33.25-32.13 34.08-32.08 35.06-32.08ZM74.31-23.93L74.31-23.93Q74.31-27.69 77.19-30.1 80.07-32.52 83.88-32.52L83.88-32.52Q84.96-32.52 85.91-32.4 86.86-32.28 87.47-32.13 88.08-31.98 89.23-31.67 90.38-31.35 91.25-31.15L91.25-31.15Q91.84-28.56 91.84-24.17L91.84-24.17Q91.84-23.83 91.35-23.83L91.35-23.83Q90.18-23.83 90.08-24.32L90.08-24.32Q89.84-26.46 88.01-28.49 86.18-30.52 83.54-30.52L83.54-30.52Q80.61-30.52 79.41-29.05 78.22-27.59 78.22-25.44L78.22-25.44Q78.22-24.51 78.56-23.66 78.9-22.8 79.24-22.24 79.58-21.68 80.49-20.95 81.39-20.21 81.81-19.92 82.22-19.63 83.47-18.85 84.71-18.07 85.05-17.87L85.05-17.87Q85.3-17.72 86.76-16.82 88.23-15.92 88.76-15.55 89.3-15.19 90.45-14.23 91.6-13.28 92.11-12.55 92.62-11.82 93.09-10.72 93.55-9.62 93.55-8.45L93.55-8.45Q93.55-4.54 90.5-2.03 87.45 0.49 83.34 0.49L83.34 0.49Q82.17 0.49 80.85 0.32 79.54 0.15 78.66-0.02 77.78-0.2 76.44-0.51 75.09-0.83 74.56-0.93L74.56-0.93Q73.33-6.93 73.33-8.69L73.33-8.69Q73.33-8.98 74.12-8.98L74.12-8.98Q75-8.98 75.34-8.54L75.34-8.54Q77-1.51 83.44-1.51L83.44-1.51Q85.88-1.51 87.59-2.98 89.3-4.44 89.3-7.13L89.3-7.13Q89.3-8.11 89.01-8.94 88.72-9.77 88.4-10.3 88.08-10.84 87.28-11.45 86.47-12.06 86.03-12.35 85.59-12.65 84.42-13.28 83.25-13.92 82.81-14.16L82.81-14.16Q81.39-14.99 80.83-15.33 80.27-15.67 78.97-16.53 77.68-17.38 77.09-18.04 76.51-18.7 75.73-19.65 74.95-20.61 74.63-21.68 74.31-22.75 74.31-23.93Z" opacity="1" transform="matrix(1,0,0,1,0,0)" fill="#ffffff" class="undefined-text-0" data-fill-palette-color="primary" id="text-0"></path></svg></g></svg></g></svg></g></svg></g><g></g></svg></g></svg></g></svg></g></svg></g><defs></defs></svg><rect width="395.52" height="247.2" fill="none" stroke="none" visibility="hidden"></rect></g></svg></g></svg>